<svg width="1921" height="854" viewBox="0 0 1921 854" fill="none" xmlns="http://www.w3.org/2000/svg">
<path d="M2.00195 849.786V0.999939C100.747 342.557 1920 515.733 1920 515.733V849.786C1166.55 855.376 748.849 852.537 2.00195 849.786Z" fill="#5CC4B4" stroke="#5CC4B4"/>
<path d="M1919.49 18.2453C1919.6 -2.13716 1919.77 -5.61588 1920 14.0967C1920.02 15.4478 1919.84 16.8311 1919.49 18.2453C1918.81 138.995 1920 852.995 1920 852.995C1920 852.995 2.77872 850.631 1.58844 852.995C0.398166 855.359 1.34082 -41.0471 1.58874 286.96C1.8342 611.72 1883.8 159.706 1919.49 18.2453Z" fill="#47B3A3"/>
<path d="M1920 14.0967C1918.38 -122.396 1920 852.995 1920 852.995C1920 852.995 2.77872 850.631 1.58844 852.995C0.398167 855.359 1.34082 -41.0471 1.58874 286.96C1.83665 614.967 1921.62 150.59 1920 14.0967Z" stroke="#47B3A3"/>
</svg>
