<svg width="79" height="72" viewBox="0 0 79 72" fill="none" xmlns="http://www.w3.org/2000/svg">
<path d="M0 36C0 16.1177 16.1177 0 36 0H43C62.8822 0 79 16.1177 79 36V36C79 55.8823 62.8823 72 43 72H36C16.1178 72 0 55.8823 0 36V36Z" fill="#51AD28"/>
<path d="M68.125 36C68.125 50.2741 55.3985 62 39.5 62V64C56.3244 64 70.125 51.5493 70.125 36H68.125ZM39.5 62C23.6015 62 10.875 50.2741 10.875 36H8.875C8.875 51.5493 22.6756 64 39.5 64V62ZM10.875 36C10.875 21.7259 23.6015 10 39.5 10V8C22.6756 8 8.875 20.4507 8.875 36H10.875ZM39.5 10C55.3985 10 68.125 21.7259 68.125 36H70.125C70.125 20.4507 56.3244 8 39.5 8V10Z" fill="white"/>
<path d="M42.1181 44.2609C41.7099 44.6329 41.6806 45.2654 42.0526 45.6736C42.4246 46.0818 43.0571 46.1111 43.4653 45.7391L42.1181 44.2609ZM52.6667 36L53.3403 36.7391C53.5482 36.5496 53.6667 36.2813 53.6667 36C53.6667 35.7187 53.5482 35.4504 53.3403 35.2609L52.6667 36ZM43.4653 26.2609C43.0571 25.8889 42.4246 25.9182 42.0526 26.3264C41.6806 26.7346 41.7099 27.3671 42.1181 27.7391L43.4653 26.2609ZM26.3333 35C25.7811 35 25.3333 35.4477 25.3333 36C25.3333 36.5523 25.7811 37 26.3333 37L26.3333 35ZM43.4653 45.7391L53.3403 36.7391L51.9931 35.2609L42.1181 44.2609L43.4653 45.7391ZM53.3403 35.2609L43.4653 26.2609L42.1181 27.7391L51.9931 36.7391L53.3403 35.2609ZM26.3333 37L52.6667 37L52.6667 35L26.3333 35L26.3333 37Z" fill="white"/>
</svg>
